<svg xmlns="http://www.w3.org/2000/svg" xml:space="preserve" width="2000" height="404" data-id="lg_hruXXxK21RQXis6Qc0" data-version="1"><g data-padding="20"><g transform="translate(10 7.214)scale(.96429)"><circle cx="275.844" cy="-86.735" r="10" fill="#2c106a" transform="translate(200.585 497.22)scale(2.27)"/><circle cx="275.844" cy="-86.735" r="2" fill="#2c106a" transform="translate(200.585 457.635)scale(2.27)"/><circle cx="275.844" cy="-86.735" r="2" fill="#2c106a" transform="translate(240.17 418.05)scale(2.27)"/><circle cx="275.844" cy="-86.735" r="2" fill="#2c106a" transform="translate(240.17 497.22)scale(2.27)"/><circle cx="275.844" cy="-86.735" r="10" fill="#2c106a" transform="translate(240.17 457.635)scale(2.27)"/><circle cx="275.844" cy="-86.735" r="10" fill="#2c106a" transform="translate(200.585 418.05)scale(2.27)"/><circle cx="275.844" cy="-86.735" r="2" fill="#2c106a" transform="translate(200.585 378.465)scale(2.27)"/><circle cx="275.844" cy="-86.735" r="2" fill="#2c106a" transform="translate(240.17 338.88)scale(2.27)"/><circle cx="275.844" cy="-86.735" r="10" fill="#2c106a" transform="translate(200.585 338.88)scale(2.27)"/><circle cx="275.844" cy="-86.735" r="10" fill="#2c106a" transform="translate(240.17 378.465)scale(2.27)"/><circle cx="275.844" cy="-86.735" r="10" fill="#2c106a" transform="translate(279.755 497.22)scale(2.27)"/><circle cx="275.844" cy="-86.735" r="2" fill="#2c106a" transform="translate(279.755 457.635)scale(2.27)"/><circle cx="275.844" cy="-86.735" r="2" fill="#2c106a" transform="translate(319.34 418.05)scale(2.27)"/><circle cx="275.844" cy="-86.735" r="2" fill="#2c106a" transform="translate(319.34 497.22)scale(2.27)"/><circle cx="275.844" cy="-86.735" r="10" fill="#2c106a" transform="translate(319.34 457.635)scale(2.27)"/><circle cx="275.844" cy="-86.735" r="10" fill="#2c106a" transform="translate(279.755 418.05)scale(2.27)"/><circle cx="275.844" cy="-86.735" r="2" fill="#2c106a" transform="translate(279.755 378.465)scale(2.27)"/><circle cx="275.844" cy="-86.735" r="2" fill="#2c106a" transform="translate(319.34 338.88)scale(2.27)"/><circle cx="275.844" cy="-86.735" r="10" fill="#2c106a" transform="translate(279.755 338.88)scale(2.27)"/><circle cx="275.844" cy="-86.735" r="10" fill="#2c106a" transform="translate(358.925 497.22)scale(2.27)"/><circle cx="275.844" cy="-86.735" r="2" fill="#2c106a" transform="translate(358.925 457.635)scale(2.27)"/><circle cx="275.844" cy="-86.735" r="10" fill="#2c106a" transform="translate(358.925 418.05)scale(2.27)"/><circle cx="275.844" cy="-86.735" r="2" fill="#2c106a" transform="translate(358.925 378.465)scale(2.27)"/><circle cx="275.844" cy="-86.735" r="10" fill="#2c106a" transform="translate(358.925 338.88)scale(2.27)"/><circle cx="275.844" cy="-86.735" r="10" fill="#2c106a" transform="translate(319.34 378.465)scale(2.27)"/><circle cx="275.844" cy="-86.735" r="10" fill="#2c106a" transform="translate(240.022 378.07)scale(2.27)"/><circle cx="275.844" cy="-86.735" r="2" fill="#2c106a" transform="translate(240.022 338.485)scale(2.27)"/><circle cx="275.844" cy="-86.735" r="2" fill="#2c106a" transform="translate(279.607 298.9)scale(2.27)"/><circle cx="275.844" cy="-86.735" r="2" fill="#2c106a" transform="translate(279.607 378.07)scale(2.27)"/><circle cx="275.844" cy="-86.735" r="10" fill="#2c106a" transform="translate(279.607 338.485)scale(2.27)"/><circle cx="275.844" cy="-86.735" r="10" fill="#2c106a" transform="translate(240.022 298.9)scale(2.27)"/><circle cx="275.844" cy="-86.735" r="2" fill="#2c106a" transform="translate(240.022 259.315)scale(2.27)"/><circle cx="275.844" cy="-86.735" r="2" fill="#2c106a" transform="translate(279.607 219.73)scale(2.27)"/><circle cx="275.844" cy="-86.735" r="10" fill="#2c106a" transform="translate(240.022 219.73)scale(2.27)"/><circle cx="275.844" cy="-86.735" r="10" fill="#2c106a" transform="translate(279.607 259.315)scale(2.27)"/><circle cx="275.844" cy="-86.735" r="10" fill="#2c106a" transform="translate(319.192 378.07)scale(2.27)"/><circle cx="275.844" cy="-86.735" r="2" fill="#2c106a" transform="translate(319.192 338.485)scale(2.27)"/><circle cx="275.844" cy="-86.735" r="2" fill="#2c106a" transform="translate(358.777 298.9)scale(2.27)"/><circle cx="275.844" cy="-86.735" r="2" fill="#2c106a" transform="translate(358.777 378.07)scale(2.27)"/><circle cx="275.844" cy="-86.735" r="10" fill="#2c106a" transform="translate(358.777 338.485)scale(2.27)"/><circle cx="275.844" cy="-86.735" r="10" fill="#2c106a" transform="translate(319.192 298.9)scale(2.27)"/><circle cx="275.844" cy="-86.735" r="2" fill="#2c106a" transform="translate(319.192 259.315)scale(2.27)"/><circle cx="275.844" cy="-86.735" r="2" fill="#2c106a" transform="translate(358.777 219.73)scale(2.27)"/><circle cx="275.844" cy="-86.735" r="10" fill="#2c106a" transform="translate(319.192 219.73)scale(2.27)"/><circle cx="275.844" cy="-86.735" r="10" fill="#2c106a" transform="translate(398.362 378.07)scale(2.27)"/><circle cx="275.844" cy="-86.735" r="2" fill="#2c106a" transform="translate(398.362 338.485)scale(2.27)"/><circle cx="275.844" cy="-86.735" r="10" fill="#2c106a" transform="translate(398.362 298.9)scale(2.27)"/><circle cx="275.844" cy="-86.735" r="2" fill="#2c106a" transform="translate(398.362 259.315)scale(2.27)"/><circle cx="275.844" cy="-86.735" r="10" fill="#2c106a" transform="translate(398.362 219.73)scale(2.27)"/><circle cx="275.844" cy="-86.735" r="10" fill="#2c106a" transform="translate(358.777 259.315)scale(2.27)"/><circle cx="275.844" cy="-86.735" r="10" fill="#2c106a" transform="translate(359.085 497.295)scale(2.27)"/><circle cx="275.844" cy="-86.735" r="2" fill="#2c106a" transform="translate(359.085 457.71)scale(2.27)"/><circle cx="275.844" cy="-86.735" r="2" fill="#2c106a" transform="translate(398.67 418.125)scale(2.27)"/><circle cx="275.844" cy="-86.735" r="2" fill="#2c106a" transform="translate(398.67 497.295)scale(2.27)"/><circle cx="275.844" cy="-86.735" r="10" fill="#2c106a" transform="translate(398.67 457.71)scale(2.27)"/><circle cx="275.844" cy="-86.735" r="10" fill="#2c106a" transform="translate(359.085 418.125)scale(2.27)"/><circle cx="275.844" cy="-86.735" r="2" fill="#2c106a" transform="translate(359.085 378.54)scale(2.27)"/><circle cx="275.844" cy="-86.735" r="2" fill="#2c106a" transform="translate(398.67 338.955)scale(2.27)"/><circle cx="275.844" cy="-86.735" r="10" fill="#2c106a" transform="translate(359.085 338.955)scale(2.27)"/><circle cx="275.844" cy="-86.735" r="10" fill="#2c106a" transform="translate(398.67 378.54)scale(2.27)"/><circle cx="275.844" cy="-86.735" r="10" fill="#2c106a" transform="translate(438.255 497.295)scale(2.27)"/><circle cx="275.844" cy="-86.735" r="2" fill="#2c106a" transform="translate(438.255 457.71)scale(2.27)"/><circle cx="275.844" cy="-86.735" r="2" fill="#2c106a" transform="translate(477.84 418.125)scale(2.27)"/><circle cx="275.844" cy="-86.735" r="2" fill="#2c106a" transform="translate(477.84 497.295)scale(2.27)"/><circle cx="275.844" cy="-86.735" r="10" fill="#2c106a" transform="translate(477.84 457.71)scale(2.27)"/><circle cx="275.844" cy="-86.735" r="10" fill="#2c106a" transform="translate(438.255 418.125)scale(2.27)"/><circle cx="275.844" cy="-86.735" r="2" fill="#2c106a" transform="translate(438.255 378.54)scale(2.27)"/><circle cx="275.844" cy="-86.735" r="2" fill="#2c106a" transform="translate(477.84 338.955)scale(2.27)"/><circle cx="275.844" cy="-86.735" r="10" fill="#2c106a" transform="translate(438.255 338.955)scale(2.27)"/><circle cx="275.844" cy="-86.735" r="10" fill="#2c106a" transform="translate(517.425 497.295)scale(2.27)"/><circle cx="275.844" cy="-86.735" r="2" fill="#2c106a" transform="translate(517.425 457.71)scale(2.27)"/><circle cx="275.844" cy="-86.735" r="10" fill="#2c106a" transform="translate(517.425 418.125)scale(2.27)"/><circle cx="275.844" cy="-86.735" r="2" fill="#2c106a" transform="translate(517.425 378.54)scale(2.27)"/><circle cx="275.844" cy="-86.735" r="10" fill="#2c106a" transform="translate(517.425 338.955)scale(2.27)"/><circle cx="275.844" cy="-86.735" r="10" fill="#2c106a" transform="translate(477.84 378.54)scale(2.27)"/><circle cx="273.435" cy="-85.978" r="10" fill="#2c106a" transform="translate(439.131 577.849)scale(2.29)"/><circle cx="273.435" cy="-85.978" r="2" fill="#2c106a" transform="translate(439.131 538.046)scale(2.29)"/><circle cx="273.435" cy="-85.978" r="2" fill="#2c106a" transform="translate(478.934 498.244)scale(2.29)"/><circle cx="273.435" cy="-85.978" r="2" fill="#2c106a" transform="translate(478.934 577.849)scale(2.29)"/><circle cx="273.435" cy="-85.978" r="10" fill="#2c106a" transform="translate(478.934 538.046)scale(2.29)"/><circle cx="273.435" cy="-85.978" r="10" fill="#2c106a" transform="translate(439.131 498.244)scale(2.29)"/><circle cx="273.435" cy="-85.978" r="2" fill="#2c106a" transform="translate(439.131 458.441)scale(2.29)"/><circle cx="273.435" cy="-85.978" r="2" fill="#2c106a" transform="translate(478.934 418.639)scale(2.29)"/><circle cx="273.435" cy="-85.978" r="10" fill="#2c106a" transform="translate(439.131 418.639)scale(2.29)"/><circle cx="273.435" cy="-85.978" r="10" fill="#2c106a" transform="translate(478.934 458.441)scale(2.29)"/><circle cx="273.435" cy="-85.978" r="10" fill="#2c106a" transform="translate(518.736 577.849)scale(2.29)"/><circle cx="273.435" cy="-85.978" r="2" fill="#2c106a" transform="translate(518.736 538.046)scale(2.29)"/><circle cx="273.435" cy="-85.978" r="2" fill="#2c106a" transform="translate(558.539 498.244)scale(2.29)"/><circle cx="273.435" cy="-85.978" r="2" fill="#2c106a" transform="translate(558.539 577.849)scale(2.29)"/><circle cx="273.435" cy="-85.978" r="10" fill="#2c106a" transform="translate(558.539 538.046)scale(2.29)"/><circle cx="273.435" cy="-85.978" r="10" fill="#2c106a" transform="translate(518.736 498.244)scale(2.29)"/><circle cx="273.435" cy="-85.978" r="2" fill="#2c106a" transform="translate(518.736 458.441)scale(2.29)"/><circle cx="273.435" cy="-85.978" r="2" fill="#2c106a" transform="translate(558.539 418.639)scale(2.29)"/><circle cx="273.435" cy="-85.978" r="10" fill="#2c106a" transform="translate(518.736 418.639)scale(2.29)"/><circle cx="273.435" cy="-85.978" r="10" fill="#2c106a" transform="translate(598.341 577.849)scale(2.29)"/><circle cx="273.435" cy="-85.978" r="2" fill="#2c106a" transform="translate(598.341 538.046)scale(2.29)"/><circle cx="273.435" cy="-85.978" r="10" fill="#2c106a" transform="translate(598.341 498.244)scale(2.29)"/><circle cx="273.435" cy="-85.978" r="2" fill="#2c106a" transform="translate(598.341 458.441)scale(2.29)"/><circle cx="273.435" cy="-85.978" r="10" fill="#2c106a" transform="translate(598.341 418.639)scale(2.29)"/><circle cx="273.435" cy="-85.978" r="10" fill="#2c106a" transform="translate(558.539 458.441)scale(2.29)"/><g transform="translate(400.5 399.54)"><filter id="a" width="140%" height="140%" x="-20%" y="-20%"><feGaussianBlur in="SourceAlpha"/><feOffset result="oBlur"/><feFlood flood-color="#f75cff" flood-opacity="1"/><feComposite in2="oBlur" operator="in"/><feMerge><feMergeNode/><feMergeNode in="SourceGraphic"/></feMerge></filter><g filter="url(#a)"><path fill="#fff" d="M398.357-247.53q18.75 0 30.82 7.6 12.07 7.59 12.35 22.5v1.71h-29.39v-.57q0-4.26-3.13-7.1-3.12-2.84-9.51-2.84-6.25 0-9.59 1.84-3.33 1.85-3.33 4.55 0 3.83 4.54 5.68 4.55 1.84 14.63 3.83 11.78 2.42 19.38 5.04 7.6 2.63 13.28 8.59 5.68 5.97 5.82 16.19 0 17.33-11.72 25.7-11.71 8.38-31.31 8.38-22.86 0-35.57-7.67-12.71-7.66-12.71-27.12h29.68q0 7.39 3.84 9.87 3.83 2.49 11.92 2.49 5.97 0 9.87-1.28 3.91-1.28 3.91-5.26 0-3.55-4.33-5.32-4.33-1.78-14.13-3.76-11.93-2.56-19.74-5.33t-13.63-9.16-5.82-17.32q0-16.05 12.42-23.64 12.43-7.6 31.45-7.6m157.49 99.4h-27.55l-11.64-41.75h-.57l-11.78 41.75h-27.55l-27.41-74.98h30.39l11.36 44.31h.99l11.79-44.31h28.12l11.36 44.31h.99l11.5-44.31h27.55Z"/><path fill="#fff" d="M643.457-150.4q-5.83 15.76-14.28 23.92-8.44 8.17-23.64 8.17-9.23 0-16.33-2.56v-16.9h11.36q10.65 0 12.64-10.36l-29.82-74.98h30.39l14.34 49.84h.99l13.21-49.84h27.83Zm71.56-74.41q19.74 0 31.03 10.01t11.29 29.18-11.29 29.18-31.03 10.01q-19.73 0-30.95-9.94t-11.22-29.25 11.22-29.25 30.95-9.94m0 19.17q-13.91 0-13.91 16.04v8.1q0 15.9 13.91 15.9 14.06 0 14.06-15.9v-8.1q0-16.04-14.06-16.04m155.49-19.17q12.78 0 19.17 7.31t6.39 20.8v48.57h-28.25v-45.16q0-4.83-2.35-7.74-2.34-2.91-6.6-2.91-4.97 0-8.09 3.41-3.13 3.41-3.13 8.38v44.02h-28.26v-45.16q0-4.83-2.34-7.74t-6.6-2.91q-4.97 0-8.1 3.41-3.12 3.41-3.12 8.38v44.02h-28.26v-74.98h23.15l1.84 11.22q4.26-5.96 11.29-9.44t14.84-3.48q16.9 0 22.72 12.92 4.4-5.96 11.29-9.44t14.41-3.48"/><rect width="560" height="160.46" x="346.167" y="-277.12" fill="none" rx="0" ry="0"/></g></g></g><path fill="transparent" stroke="transparent" d="M720 0h560v404H720z"/></g></svg>